<svg id="visual" viewBox="0 0 2400 1800" width="2400" height="1800" xmlns="http://www.w3.org/2000/svg" xmlns:xlink="http://www.w3.org/1999/xlink" version="1.1"><rect x="0" y="0" width="2400" height="1800" fill="#931C1C"></rect><path d="M0 583L343 716L686 882L1029 887L1371 718L1714 914L2057 611L2400 924L2400 1801L2057 1801L1714 1801L1371 1801L1029 1801L686 1801L343 1801L0 1801Z" fill="#f5730a"></path><path d="M0 936L343 1039L686 834L1029 998L1371 955L1714 1079L2057 1109L2400 1131L2400 1801L2057 1801L1714 1801L1371 1801L1029 1801L686 1801L343 1801L0 1801Z" fill="#da5b09"></path><path d="M0 1154L343 1201L686 1018L1029 985L1371 1103L1714 1108L2057 1014L2400 1054L2400 1801L2057 1801L1714 1801L1371 1801L1029 1801L686 1801L343 1801L0 1801Z" fill="#be4407"></path><path d="M0 1275L343 1327L686 1226L1029 1440L1371 1259L1714 1473L2057 1359L2400 1181L2400 1801L2057 1801L1714 1801L1371 1801L1029 1801L686 1801L343 1801L0 1801Z" fill="#a32d04"></path><path d="M0 1544L343 1543L686 1523L1029 1578L1371 1459L1714 1546L2057 1402L2400 1642L2400 1801L2057 1801L1714 1801L1371 1801L1029 1801L686 1801L343 1801L0 1801Z" fill="#871400"></path></svg>