<svg id="visual" viewBox="0 0 975 1400" width="975" height="1400" xmlns="http://www.w3.org/2000/svg" xmlns:xlink="http://www.w3.org/1999/xlink" version="1.1"><rect x="0" y="0" width="975" height="1400" fill="#931C1C"></rect><path d="M0 454L139 556L279 686L418 690L557 558L696 711L836 475L975 718L975 1401L836 1401L696 1401L557 1401L418 1401L279 1401L139 1401L0 1401Z" fill="#f5730a"></path><path d="M0 728L139 808L279 649L418 776L557 743L696 839L836 863L975 879L975 1401L836 1401L696 1401L557 1401L418 1401L279 1401L139 1401L0 1401Z" fill="#da5b09"></path><path d="M0 898L139 934L279 791L418 766L557 858L696 862L836 788L975 820L975 1401L836 1401L696 1401L557 1401L418 1401L279 1401L139 1401L0 1401Z" fill="#be4407"></path><path d="M0 992L139 1032L279 953L418 1120L557 979L696 1145L836 1057L975 918L975 1401L836 1401L696 1401L557 1401L418 1401L279 1401L139 1401L0 1401Z" fill="#a32d04"></path><path d="M0 1201L139 1200L279 1184L418 1227L557 1134L696 1202L836 1090L975 1277L975 1401L836 1401L696 1401L557 1401L418 1401L279 1401L139 1401L0 1401Z" fill="#871400"></path></svg>